<svg xmlns="http://www.w3.org/2000/svg" viewBox="0 0 1200 630" role="img" aria-label="Longcat social mark">
  <rect width="1200" height="630" fill="#d5fd51"/>
  <g opacity=".14" stroke="#050805" stroke-width="1">
    <path d="M0 126h1200M0 252h1200M0 378h1200M0 504h1200"/>
    <path d="M120 0v630M260 0v630M400 0v630M540 0v630M680 0v630M820 0v630M960 0v630M1100 0v630"/>
  </g>
  <path d="M630 426c82-76 161-95 236-58 79 38 148 17 208-65 45-62 92-85 140-70" fill="none" stroke="#050805" stroke-width="11" stroke-linecap="round" opacity=".2"/>
  <path d="M630 456c90-76 174-91 250-44 77 48 148 28 213-59 46-62 94-84 143-67" fill="none" stroke="#050805" stroke-width="5" stroke-linecap="round" opacity=".16"/>
  <g transform="translate(840 128) scale(.46)">
    <path d="M96 330c130-86 278-112 506-80l16-70 62 52 85-18-38 72c36 26 48 79 16 116-54 62-190 52-314 14-121-37-215-34-344 24 2-46 4-79 11-110Z" fill="#f8fff0" stroke="#050805" stroke-width="13" stroke-linejoin="round"/>
    <path d="M96 330c130-86 278-112 506-80" fill="none" stroke="#050805" stroke-width="18" stroke-linecap="round" opacity=".82"/>
    <circle cx="662" cy="316" r="12" fill="#050805"/>
    <circle cx="716" cy="318" r="12" fill="#050805"/>
    <path d="M686 350c14 6 27 6 40 0" fill="none" stroke="#050805" stroke-width="7" stroke-linecap="round"/>
  </g>
  <text x="70" y="104" fill="#050805" font-family="Arial, Helvetica, sans-serif" font-size="52" font-weight="900">LONGCAT</text>
  <text x="68" y="300" fill="#050805" font-family="Arial, Helvetica, sans-serif" font-size="88" font-weight="950">THE LONGEST CAT</text>
  <text x="68" y="398" fill="#050805" font-family="Arial, Helvetica, sans-serif" font-size="88" font-weight="950">ON ROBINHOOD.</text>
  <text x="72" y="520" fill="#050805" font-family="Arial, Helvetica, sans-serif" font-size="29" font-weight="800" opacity=".84">Creator fees scale into a public $CASHCAT long.</text>
</svg>
